<svg xmlns="http://www.w3.org/2000/svg" xmlns:svg="http://www.w3.org/2000/svg" xmlns:xlink="http://www.w3.org/1999/xlink" id="svg2" width="605" height="412" version="1.1"><metadata id="metadata8"/><defs id="defs6"><linearGradient id="linearGradient3607"><stop style="stop-color:#fff;stop-opacity:1" id="stop3609" offset="0"/><stop style="stop-color:#d1d1d1;stop-opacity:1" id="stop3611" offset="1"/></linearGradient><linearGradient id="linearGradient3613" x1="277.12" x2="277.12" y1="52.042" y2="378.576" gradientUnits="userSpaceOnUse" xlink:href="#linearGradient3607"/><linearGradient id="linearGradient3665" x1="277.12" x2="277.12" y1="27.167" y2="404.088" gradientUnits="userSpaceOnUse" xlink:href="#linearGradient3607"/></defs><path style="fill:url(#linearGradient3665);stroke:#505050;stroke-width:11.5;stroke-linecap:butt;stroke-linejoin:round;stroke-opacity:1;fill-opacity:1;stroke-miterlimit:4.09999990000000025;stroke-dasharray:none" id="path2818" d="m 296.34375,215.07812 c 0,32.60634 13.59626,49.72008 32.71875,49.72008 27.77495,0 23.88987,-22.01863 55.87606,-16.67373 -16.49926,46.12236 -45.85975,60.88308 -73.21981,70.59428 0.39081,19.29927 18.84947,26.30254 17.95445,47.14036 -0.34076,16.77569 -14.62118,31.5395 -50.01695,32.45339 -28.85093,0.74491 -49.61491,-15.03662 -49.8125,-35.5 -0.22378,-23.17528 17.10451,-24.97567 16.71875,-45.96875 -20.77549,-8.49037 -48.23714,-23.05263 -67.625,-69.8125 -19.49203,1.0783 -27.96528,18.58146 -47.25,18 -19.28472,-0.58146 -31.923849,-18.7226 -31.75,-49.95313 0.27834,-31.08881 14.31922,-51.45445 35.89619,-50.38956 27.52144,1.35827 23.69952,18.11788 43.21292,16.47246 19.58098,-44.74959 46.63393,-59.45097 67.40678,-67.95763 2.55365,-20.34271 -13.74393,-22.644231 -16.60964,-45.85964 -2.64206,-21.403585 20.36505,-34.917116 49.8125,-34.408898 34.20898,1.166056 47.56055,16.905412 50.5625,31.471398 5.372,26.065843 -17.90666,30.098219 -18.5,47.03125 27.49653,9.50649 55.49834,22.2136 72.78337,68.95763 -37.16568,3.76459 -20.58858,-15.59489 -55.43962,-15.58263 -21.34496,0.80098 -32.56067,25.14406 -32.71875,50.26562 z"/><path style="fill:#505050;fill-opacity:1;stroke:none" id="path3595" d="m 333.1679,141.73412 a 7.9104872,7.9104872 0 1 1 -15.82097,0 7.9104872,7.9104872 0 1 1 15.82097,0 z" transform="translate(0.51827331,0.10911017)"/><path style="fill:#fff;fill-opacity:1;stroke:#505050;stroke-width:11;stroke-miterlimit:4;stroke-opacity:1;stroke-dasharray:none" id="path3597" d="m 463.22386,161.40855 a 14.504678,14.504678 0 1 1 -29.00936,0 14.504678,14.504678 0 1 1 29.00936,0 z" transform="translate(0.43644068,-0.21822034)"/><path id="path3601" d="m 463.22386,161.40855 a 14.504678,14.504678 0 1 1 -29.00936,0 14.504678,14.504678 0 1 1 29.00936,0 z" transform="matrix(1.6489362,0,0,1.6489362,-241.51074,-155.90234)" style="fill:#fff;fill-opacity:1;stroke:#505050;stroke-width:6.67096762;stroke-miterlimit:4;stroke-opacity:1;stroke-dasharray:none"/><path style="fill:#fff;fill-opacity:1;stroke:#505050;stroke-width:4.7214613;stroke-miterlimit:4;stroke-opacity:1;stroke-dasharray:none" id="path3605" d="m 463.22386,161.40855 a 14.504678,14.504678 0 1 1 -29.00936,0 14.504678,14.504678 0 1 1 29.00936,0 z" transform="matrix(2.3297873,0,0,2.3297873,-486.997,-327.67385)"/><path style="fill:none;stroke:#505050;stroke-width:9;stroke-linecap:round;stroke-linejoin:round;stroke-opacity:1;stroke-miterlimit:4;stroke-dasharray:none" id="path3615" d="m 67.662778,176.76189 c 0,0 -10.629563,24.70204 -10.569898,37.26469 0.06444,13.56817 11.650034,36.64746 11.650034,36.64746"/><path id="path3617" d="m 28.164897,176.76189 c 0,0 -10.629563,24.70204 -10.569898,37.26469 0.06444,13.56817 11.650034,36.64746 11.650034,36.64746" style="fill:none;stroke:#505050;stroke-width:9;stroke-linecap:round;stroke-linejoin:round;stroke-miterlimit:4;stroke-opacity:1;stroke-dasharray:none"/></svg>